<?xml version="1.0" encoding="UTF-8"?>
<svg xmlns="http://www.w3.org/2000/svg" width="1080" height="1440" viewBox="0 0 1080 1440" role="img" aria-label="虚构活动：未完成的现场">
<rect width="1080" height="1440" fill="#F2F0E9"/>
<text x="55" y="72" fill="#151619" font-size="19" font-weight="700" font-family="Arial, Helvetica, sans-serif" letter-spacing="2">Z.ONE / OPEN STUDIO</text>
<text x="864" y="72" fill="#151619" font-size="18" font-weight="700" font-family="Arial, Helvetica, sans-serif" letter-spacing="2">NO. 002</text>
<path d="M55 102H1025" stroke="#151619" stroke-width="2" opacity="1"/>
<g transform="translate(879 268) scale(0.64)"><circle r="296" fill="#F04C36"/><path d="M82.00 0.00 L229.95 4.60 L237.12 20.44 L92.35 10.95 Z" fill="#F2F0E9" opacity=".92"/><path d="M84.27 11.09 L237.20 36.55 L242.03 54.10 L93.04 23.65 Z" fill="#151619" opacity=".9"/><path d="M85.00 22.78 L239.86 70.48 L242.02 89.39 L91.95 36.70 Z" fill="#151619" opacity=".9"/><path d="M84.07 34.82 L237.54 105.71 L236.75 125.58 L88.99 49.86 Z" fill="#151619" opacity=".9"/><path d="M81.41 47.00 L229.96 141.49 L227.93 159.17 L84.12 62.84 Z" fill="#151619" opacity=".9"/><path d="M76.96 59.05 L218.69 174.86 L212.00 194.94 L77.35 75.38 Z" fill="#151619" opacity=".9"/><path d="M70.71 70.71 L159.02 166.17 L152.12 183.04 L68.70 87.18 Z" fill="#151619" opacity=".9"/><path d="M49.92 65.05 L141.49 193.86 L131.63 210.19 L47.54 79.93 Z" fill="#151619" opacity=".9"/><path d="M42.50 73.61 L119.33 219.68 L109.33 233.69 L37.88 88.21 Z" fill="#F2F0E9" opacity=".92"/><path d="M33.68 81.30 L92.73 242.90 L80.15 255.74 L26.85 95.29 Z" fill="#151619" opacity=".9"/><path d="M23.55 87.90 L64.65 262.15 L46.98 274.00 L14.62 100.95 Z" fill="#151619" opacity=".9"/><path d="M12.27 93.20 L30.43 278.34 L10.34 287.81 L1.35 104.99 Z" fill="#151619" opacity=".9"/><path d="M0.00 97.00 L-5.52 229.93 L-20.44 237.12 L-12.71 107.25 Z" fill="#151619" opacity=".9"/><path d="M-13.05 99.14 L-37.50 237.05 L-54.10 242.03 L-27.34 107.58 Z" fill="#151619" opacity=".9"/><path d="M-21.22 79.21 L-71.44 239.58 L-89.39 242.02 L-34.48 86.37 Z" fill="#151619" opacity=".9"/><path d="M-32.53 78.53 L-104.28 238.17 L-125.58 236.75 L-46.92 83.75 Z" fill="#151619" opacity=".9"/><path d="M-44.00 76.21 L-140.11 230.80 L-159.17 227.93 L-59.25 79.31 Z" fill="#F2F0E9" opacity=".92"/><path d="M-55.40 72.20 L-175.73 217.98 L-194.94 212.00 L-71.19 73.05 Z" fill="#151619" opacity=".9"/><path d="M-66.47 66.47 L-166.81 158.35 L-183.04 152.12 L-82.47 64.99 Z" fill="#151619" opacity=".9"/><path d="M-76.96 59.05 L-194.42 140.71 L-210.19 131.63 L-92.83 55.20 Z" fill="#151619" opacity=".9"/><path d="M-86.60 50.00 L-218.96 120.65 L-233.69 109.33 L-101.99 43.80 Z" fill="#151619" opacity=".9"/><path d="M-75.76 31.38 L-242.34 94.19 L-255.74 80.15 L-89.51 25.23 Z" fill="#151619" opacity=".9"/><path d="M-82.10 22.00 L-262.40 63.60 L-274.00 46.98 L-95.01 13.76 Z" fill="#151619" opacity=".9"/><path d="M-87.25 11.49 L-278.46 29.32 L-287.81 10.34 L-98.99 1.28 Z" fill="#151619" opacity=".9"/><path d="M-91.00 0.00 L-229.91 -6.44 L-237.12 -20.44 L-101.29 -12.01 Z" fill="#F2F0E9" opacity=".92"/><path d="M-93.20 -12.27 L-237.27 -36.08 L-242.03 -54.10 L-101.76 -25.87 Z" fill="#151619" opacity=".9"/><path d="M-93.69 -25.11 L-240.00 -70.00 L-242.02 -89.39 L-100.30 -40.04 Z" fill="#151619" opacity=".9"/><path d="M-92.39 -38.27 L-237.75 -105.23 L-236.75 -125.58 L-96.84 -54.26 Z" fill="#151619" opacity=".9"/><path d="M-71.01 -41.00 L-230.24 -141.03 L-227.93 -159.17 L-74.51 -55.66 Z" fill="#151619" opacity=".9"/><path d="M-67.44 -51.74 L-217.28 -176.61 L-212.00 -194.94 L-68.75 -67.00 Z" fill="#151619" opacity=".9"/><path d="M-62.23 -62.23 L-159.35 -165.85 L-152.12 -183.04 L-61.28 -77.76 Z" fill="#151619" opacity=".9"/><path d="M-55.40 -72.20 L-141.88 -193.57 L-131.63 -210.19 L-52.14 -87.67 Z" fill="#151619" opacity=".9"/><path d="M-47.00 -81.41 L-119.77 -219.44 L-109.33 -233.69 L-41.43 -96.48 Z" fill="#F2F0E9" opacity=".92"/><path d="M-37.12 -89.62 L-93.22 -242.71 L-80.15 -255.74 L-29.30 -103.95 Z" fill="#151619" opacity=".9"/><path d="M-25.88 -96.59 L-62.55 -262.65 L-46.98 -274.00 L-15.91 -109.85 Z" fill="#151619" opacity=".9"/><path d="M-10.70 -81.30 L-30.99 -278.28 L-10.34 -287.81 L-1.20 -92.99 Z" fill="#151619" opacity=".9"/><path d="M-0.00 -85.00 L5.06 -229.94 L20.44 -237.12 L11.30 -95.33 Z" fill="#151619" opacity=".9"/><path d="M11.49 -87.25 L37.03 -237.13 L54.10 -242.03 L24.39 -95.95 Z" fill="#151619" opacity=".9"/><path d="M23.55 -87.90 L70.96 -239.72 L89.39 -242.02 L37.81 -94.73 Z" fill="#151619" opacity=".9"/><path d="M35.97 -86.84 L106.18 -237.33 L125.58 -236.75 L51.32 -91.60 Z" fill="#151619" opacity=".9"/><path d="M48.50 -84.00 L139.65 -231.08 L159.17 -227.93 L64.64 -86.52 Z" fill="#F2F0E9" opacity=".92"/><path d="M60.88 -79.34 L175.30 -218.34 L194.94 -212.00 L77.47 -79.49 Z" fill="#151619" opacity=".9"/><path d="M57.98 -57.98 L166.49 -158.68 L183.04 -152.12 L73.05 -57.56 Z" fill="#151619" opacity=".9"/><path d="M67.44 -51.74 L194.14 -141.10 L210.19 -131.63 L82.51 -49.07 Z" fill="#151619" opacity=".9"/><path d="M76.21 -44.00 L219.92 -118.89 L233.69 -109.33 L90.97 -39.06 Z" fill="#151619" opacity=".9"/><path d="M84.07 -34.82 L242.15 -94.67 L255.74 -80.15 L98.18 -27.67 Z" fill="#151619" opacity=".9"/><path d="M90.80 -24.33 L262.27 -64.13 L274.00 -46.98 L103.92 -15.05 Z" fill="#151619" opacity=".9"/><path d="M96.17 -12.66 L278.40 -29.87 L287.81 -10.34 L107.99 -1.39 Z" fill="#151619" opacity=".9"/><circle r="84" fill="#F2F0E9"/><circle r="58" fill="#151619"/><path d="M-32 -16 H31 M-32 0 H12 M-32 16 H31" fill="none" stroke="#F2F0E9" stroke-width="6" stroke-linecap="square"/><circle r="283" fill="none" stroke="#151619" stroke-width="2"/></g>
<text x="55" y="162" fill="#F04C36" font-size="20" font-weight="700" font-family="Arial, Helvetica, sans-serif" letter-spacing="2">PROGRAMME  /  2026.10.25</text>
<text x="47" y="344" fill="#151619" font-size="117" font-weight="900" font-family="PingFang SC, Noto Sans CJK SC, Microsoft YaHei, sans-serif" letter-spacing="-5">开放日</text>
<text x="53" y="428" fill="#151619" font-size="59" font-weight="700" font-family="PingFang SC, Noto Sans CJK SC, Microsoft YaHei, sans-serif" letter-spacing="-2">未完成的现场</text>
<path d="M55 478H1025" stroke="#151619" stroke-width="3" opacity="1"/>
<text x="55" y="567" fill="#F04C36" font-size="41" font-weight="700" font-family="Arial, Helvetica, sans-serif" letter-spacing="2">14:00</text>
<text x="312" y="568" fill="#151619" font-size="53" font-weight="800" font-family="PingFang SC, Noto Sans CJK SC, Microsoft YaHei, sans-serif" >工作现场开放</text>
<text x="315" y="606" fill="#656666" font-size="18" font-weight="700" font-family="Arial, Helvetica, sans-serif" letter-spacing="2">OPEN STUDIO</text>
<text x="314" y="650" fill="#656666" font-size="25" font-weight="500" font-family="PingFang SC, Noto Sans CJK SC, Microsoft YaHei, sans-serif" >看看作品如何从未完成开始</text>
<path d="M55 691H1025" stroke="#151619" stroke-width="1" opacity="0.27"/>
<text x="55" y="763" fill="#F04C36" font-size="41" font-weight="700" font-family="Arial, Helvetica, sans-serif" letter-spacing="2">16:00</text>
<text x="312" y="764" fill="#151619" font-size="53" font-weight="800" font-family="PingFang SC, Noto Sans CJK SC, Microsoft YaHei, sans-serif" >未完成分享</text>
<text x="315" y="802" fill="#656666" font-size="18" font-weight="700" font-family="Arial, Helvetica, sans-serif" letter-spacing="2">SHOW &amp; TELL</text>
<text x="314" y="846" fill="#656666" font-size="25" font-weight="500" font-family="PingFang SC, Noto Sans CJK SC, Microsoft YaHei, sans-serif" >带着一个还在生长的想法</text>
<path d="M55 887H1025" stroke="#151619" stroke-width="1" opacity="0.27"/>
<text x="55" y="959" fill="#F04C36" font-size="41" font-weight="700" font-family="Arial, Helvetica, sans-serif" letter-spacing="2">18:00</text>
<text x="312" y="960" fill="#151619" font-size="53" font-weight="800" font-family="PingFang SC, Noto Sans CJK SC, Microsoft YaHei, sans-serif" >共同讨论</text>
<text x="315" y="998" fill="#656666" font-size="18" font-weight="700" font-family="Arial, Helvetica, sans-serif" letter-spacing="2">COMMON TABLE</text>
<text x="314" y="1042" fill="#656666" font-size="25" font-weight="500" font-family="PingFang SC, Noto Sans CJK SC, Microsoft YaHei, sans-serif" >把下一步留给现场的人</text>
<path d="M55 1083H1025" stroke="#151619" stroke-width="1" opacity="0.27"/>
<rect y="1174" width="1080" height="266" fill="#151619"/>
<text x="58" y="1232" fill="#F04C36" font-size="24" font-weight="700" font-family="Arial, Helvetica, sans-serif" letter-spacing="2">OPEN  /  14:00—19:00</text>
<text x="51" y="1348" fill="#F2F0E9" font-size="58" font-weight="700" font-family="PingFang SC, Noto Sans CJK SC, Microsoft YaHei, sans-serif" >带着未完成，来到现场。</text>
<text x="57" y="1405" fill="#F2F0E9" font-size="18" font-weight="700" font-family="Arial, Helvetica, sans-serif" letter-spacing="2">Z.ONE STUDIO  /  FICTIONAL VENUE</text>
<text x="916" y="1407" fill="#F2F0E9" font-size="20" font-weight="500" font-family="PingFang SC, Noto Sans CJK SC, Microsoft YaHei, sans-serif" >虚构演示</text>
</svg>
